# Blender v3.6.23 OBJ File: 'untitled.blend'
# www.blender.org
mtllib ladder.mtl
o Cube.002_Cube.003
v 1.000000 0.576633 0.079775
v -1.000000 0.576633 0.079775
v 1.000000 0.576633 -0.079775
v -1.000000 0.576633 -0.079775
v 1.000000 0.823367 0.079775
v -1.000000 0.823367 0.079775
v 1.000000 0.823367 -0.079775
v -1.000000 0.823367 -0.079775
v -0.823367 -1.000000 0.117563
v -0.823367 1.000000 0.117563
v -0.823367 -1.000000 -0.117563
v -0.823367 1.000000 -0.117563
v -0.576633 -1.000000 0.117563
v -0.576633 1.000000 0.117563
v -0.576633 -1.000000 -0.117563
v -0.576633 1.000000 -0.117563
v 0.576633 -1.000000 0.117563
v 0.576633 1.000000 0.117563
v 0.576633 -1.000000 -0.117563
v 0.576633 1.000000 -0.117563
v 0.823367 -1.000000 0.117563
v 0.823367 1.000000 0.117563
v 0.823367 -1.000000 -0.117563
v 0.823367 1.000000 -0.117563
v 1.000000 -0.923367 0.079775
v -1.000000 -0.923366 0.079775
v 1.000000 -0.923367 -0.079775
v -1.000000 -0.923366 -0.079775
v 1.000000 -0.676633 0.079775
v -1.000000 -0.676633 0.079775
v 1.000000 -0.676633 -0.079775
v -1.000000 -0.676633 -0.079775
v 1.000000 0.076633 0.079775
v -1.000000 0.076633 0.079775
v 1.000000 0.076633 -0.079775
v -1.000000 0.076633 -0.079775
v 1.000000 0.323366 0.079775
v -1.000000 0.323367 0.079775
v 1.000000 0.323366 -0.079775
v -1.000000 0.323367 -0.079775
v 1.000000 -0.423367 0.079775
v -1.000000 -0.423366 0.079775
v 1.000000 -0.423367 -0.079775
v -1.000000 -0.423366 -0.079775
v 1.000000 -0.176633 0.079775
v -1.000000 -0.176633 0.079775
v 1.000000 -0.176633 -0.079775
v -1.000000 -0.176633 -0.079775
vt 0.375000 0.000000
vt 0.625000 0.000000
vt 0.625000 0.250000
vt 0.375000 0.250000
vt 0.625000 0.500000
vt 0.375000 0.500000
vt 0.625000 0.750000
vt 0.375000 0.750000
vt 0.625000 1.000000
vt 0.375000 1.000000
vt 0.125000 0.500000
vt 0.125000 0.750000
vt 0.875000 0.500000
vt 0.875000 0.750000
vt 0.375000 0.000000
vt 0.625000 0.000000
vt 0.625000 0.250000
vt 0.375000 0.250000
vt 0.625000 0.500000
vt 0.375000 0.500000
vt 0.625000 0.750000
vt 0.375000 0.750000
vt 0.625000 1.000000
vt 0.375000 1.000000
vt 0.125000 0.500000
vt 0.125000 0.750000
vt 0.875000 0.500000
vt 0.875000 0.750000
vt 0.375000 0.000000
vt 0.625000 0.000000
vt 0.625000 0.250000
vt 0.375000 0.250000
vt 0.625000 0.500000
vt 0.375000 0.500000
vt 0.625000 0.750000
vt 0.375000 0.750000
vt 0.625000 1.000000
vt 0.375000 1.000000
vt 0.125000 0.500000
vt 0.125000 0.750000
vt 0.875000 0.500000
vt 0.875000 0.750000
vt 0.375000 0.000000
vt 0.625000 0.000000
vt 0.625000 0.250000
vt 0.375000 0.250000
vt 0.625000 0.500000
vt 0.375000 0.500000
vt 0.625000 0.750000
vt 0.375000 0.750000
vt 0.625000 1.000000
vt 0.375000 1.000000
vt 0.125000 0.500000
vt 0.125000 0.750000
vt 0.875000 0.500000
vt 0.875000 0.750000
vt 0.375000 0.000000
vt 0.625000 0.000000
vt 0.625000 0.250000
vt 0.375000 0.250000
vt 0.625000 0.500000
vt 0.375000 0.500000
vt 0.625000 0.750000
vt 0.375000 0.750000
vt 0.625000 1.000000
vt 0.375000 1.000000
vt 0.125000 0.500000
vt 0.125000 0.750000
vt 0.875000 0.500000
vt 0.875000 0.750000
vt 0.375000 0.000000
vt 0.625000 0.000000
vt 0.625000 0.250000
vt 0.375000 0.250000
vt 0.625000 0.500000
vt 0.375000 0.500000
vt 0.625000 0.750000
vt 0.375000 0.750000
vt 0.625000 1.000000
vt 0.375000 1.000000
vt 0.125000 0.500000
vt 0.125000 0.750000
vt 0.875000 0.500000
vt 0.875000 0.750000
vn -0.0000 -1.0000 0.0000
vn 0.0000 -0.0000 -1.0000
vn 0.0000 1.0000 0.0000
vn -0.0000 0.0000 1.0000
vn 1.0000 0.0000 0.0000
vn -1.0000 0.0000 -0.0000
usemtl None
s off
f 1/1/1 2/2/1 4/3/1 3/4/1
f 3/4/2 4/3/2 8/5/2 7/6/2
f 7/6/3 8/5/3 6/7/3 5/8/3
f 5/8/4 6/7/4 2/9/4 1/10/4
f 3/11/5 7/6/5 5/8/5 1/12/5
f 8/5/6 4/13/6 2/14/6 6/7/6
f 9/15/6 10/16/6 12/17/6 11/18/6
f 11/18/2 12/17/2 16/19/2 15/20/2
f 15/20/5 16/19/5 14/21/5 13/22/5
f 13/22/4 14/21/4 10/23/4 9/24/4
f 11/25/1 15/20/1 13/22/1 9/26/1
f 16/19/3 12/27/3 10/28/3 14/21/3
f 17/29/6 18/30/6 20/31/6 19/32/6
f 19/32/2 20/31/2 24/33/2 23/34/2
f 23/34/5 24/33/5 22/35/5 21/36/5
f 21/36/4 22/35/4 18/37/4 17/38/4
f 19/39/1 23/34/1 21/36/1 17/40/1
f 24/33/3 20/41/3 18/42/3 22/35/3
f 25/43/1 26/44/1 28/45/1 27/46/1
f 27/46/2 28/45/2 32/47/2 31/48/2
f 31/48/3 32/47/3 30/49/3 29/50/3
f 29/50/4 30/49/4 26/51/4 25/52/4
f 27/53/5 31/48/5 29/50/5 25/54/5
f 32/47/6 28/55/6 26/56/6 30/49/6
f 33/57/1 34/58/1 36/59/1 35/60/1
f 35/60/2 36/59/2 40/61/2 39/62/2
f 39/62/3 40/61/3 38/63/3 37/64/3
f 37/64/4 38/63/4 34/65/4 33/66/4
f 35/67/5 39/62/5 37/64/5 33/68/5
f 40/61/6 36/69/6 34/70/6 38/63/6
f 41/71/1 42/72/1 44/73/1 43/74/1
f 43/74/2 44/73/2 48/75/2 47/76/2
f 47/76/3 48/75/3 46/77/3 45/78/3
f 45/78/4 46/77/4 42/79/4 41/80/4
f 43/81/5 47/76/5 45/78/5 41/82/5
f 48/75/6 44/83/6 42/84/6 46/77/6
